:FULLY-SPECIFIED
:FORCE-ALL-JOINTS-BE-3DOF
:DEGREES
510
root -5.10202 15.0366 -42.5504 366.231 -0.389147 345.624
lfemur -57.0482 35.1697 -23.2532
ltibia 72.4724 0 0
lfoot -17.3884 22.2538 0
ltoes 3.45247 0 0
rfemur -21.2833 -21.9382 8.26969
rtibia 57.1394 0 0
rfoot 5.69554 -18.1956 0
rtoes 8.16033 0 0
lowerback 15.5077 1.29822 -4.48239
upperback -1.3764 1.23165 3.4034
thorax -10.4396 0.965293 5.99076
lowerneck 4.04658 -15.2619 -16.9138
upperneck 4.45159 -22.283 19.8292
head 4.85479 -11.2052 7.39276
lclavicle -1.57759e-14 -1.03145e-14 0
lhumerus 22.8642 -73.6078 74.0786
lradius 88.5645 0 0
lwrist 23.8361 0 0
lhand -3.11314 36.785 0
lfingers 7.12502 0 0
lthumb 17.2667 69.1886 0
rclavicle 1.60972e-14 -1.24434e-14 0
rhumerus 52.0672 40.1322 -29.8751
rradius 107.553 0 0
rwrist -25.2266 0 0
rhand 0.0780981 -14.7111 0
rfingers 7.12502 0 0
rthumb 30.8008 -51.4577 0
511
root -5.19425 15.0364 -42.6301 366.197 -2.86245 345.908
lfemur -54.5386 33.9083 -22.1669
ltibia 71.9983 0 0
lfoot -16.6234 21.5789 0
ltoes 1.56393 0 0
rfemur -20.8237 -22.4061 8.01513
rtibia 56.0876 0 0
rfoot 5.12518 -16.8245 0
rtoes 7.16389 0 0
lowerback 15.7849 1.38378 -4.65852
upperback -1.35258 1.29196 3.31163
thorax -10.5842 1.00449 5.97737
lowerneck 3.62346 -14.8781 -16.9079
upperneck 4.71013 -21.6766 19.2974
head 4.82227 -10.8852 7.27883
lclavicle -1.51282e-14 -1.1061e-14 0
lhumerus 21.8097 -72.9743 74.3601
lradius 90.0033 0 0
lwrist 23.9346 0 0
lhand -3.10516 36.5881 0
lfingers 7.12502 0 0
lthumb 16.2419 69.919 0
rclavicle 1.46838e-14 -1.21143e-14 0
rhumerus 49.0126 41.2334 -31.7264
rradius 106.333 0 0
rwrist -25.2603 0 0
rhand -0.935793 -14.594 0
rfingers 7.12502 0 0
rthumb 30.6665 -51.5555 0
512
root -5.28031 15.026 -42.7058 366.203 -5.37375 346.2
lfemur -51.8266 32.5452 -20.9931
ltibia 71.498 0 0
lfoot -15.9099 20.9494 0
ltoes -0.379127 0 0
rfemur -20.5374 -22.6976 7.85652
rtibia 55.2298 0 0
rfoot 4.51028 -15.3463 0
rtoes 6.10299 0 0
lowerback 16.0591 1.35909 -4.94483
upperback -1.45244 1.19516 3.33732
thorax -10.8503 0.987904 6.20118
lowerneck 3.45964 -14.2981 -17.0473
upperneck 4.87511 -20.8215 18.7612
head 4.69201 -10.4634 7.24165
lclavicle -1.44912e-14 -1.17952e-14 0
lhumerus 20.1172 -71.9576 74.812
lradius 91.4289 0 0
lwrist 24.028 0 0
lhand -3.09777 36.4056 0
lfingers 7.12502 0 0
lthumb 15.1998 70.6618 0
rclavicle 1.28007e-14 -1.16758e-14 0
rhumerus 46.0006 42.3192 -33.5519
rradius 104.709 0 0
rwrist -25.2989 0 0
rhand -2.0852 -14.4613 0
rfingers 7.12502 0 0
rthumb 30.5481 -51.6417 0
513
root -5.35517 15.0095 -42.7729 366.165 -8.05792 346.579
lfemur -48.9432 31.0961 -19.7452
ltibia 70.9802 0 0
lfoot -15.2582 20.3744 0
ltoes -2.35491 0 0
rfemur -20.4387 -22.798 7.80188
rtibia 54.5889 0 0
rfoot 3.85826 -13.7788 0
rtoes 4.99374 0 0
lowerback 16.3042 1.33078 -5.25953
upperback -1.52314 1.08434 3.34054
thorax -11.0643 0.964142 6.42056
lowerneck 3.19546 -13.7049 -17.014
upperneck 5.0953 -19.9217 18.0706
head 4.5561 -10.0131 7.12486
lclavicle -1.38721e-14 -1.25087e-14 0
lhumerus 17.8399 -70.5896 75.4199
lradius 92.8154 0 0
lwrist 24.1151 0 0
lhand -3.09111 36.2413 0
lfingers 7.12502 0 0
lthumb 14.152 71.4086 0
rclavicle 1.05032e-14 -1.11407e-14 0
rhumerus 43.0736 43.3744 -35.326
rradius 102.726 0 0
rwrist -25.3416 0 0
rhand -3.35508 -14.3147 0
rfingers 7.12502 0 0
rthumb 30.4473 -51.7152 0
514
root -5.42609 14.9983 -42.8445 366.215 -10.7374 346.962
lfemur -45.9198 29.5764 -18.4366
ltibia 70.4537 0 0
lfoot -14.6785 19.8629 0
ltoes -4.34159 0 0
rfemur -20.5739 -22.7932 7.81063
rtibia 54.1875 0 0
rfoot 3.17655 -12.14 0
rtoes 3.85226 0 0
lowerback 16.5944 1.19192 -5.7716
upperback -1.74182 0.792378 3.44599
thorax -11.4497 0.884557 6.92437
lowerneck 3.29212 -12.9447 -16.9808
upperneck 5.27516 -18.8312 17.3052
head 4.31436 -9.49026 7.0321
lclavicle -1.32781e-14 -1.31934e-14 0
lhumerus 15.0309 -68.9022 76.1698
lradius 94.1366 0 0
lwrist 24.1946 0 0
lhand -3.08534 36.0988 0
lfingers 7.12502 0 0
lthumb 13.1099 72.1514 0
rclavicle 7.84662e-15 -1.05221e-14 0
rhumerus 40.2742 44.3836 -37.0227
rradius 100.434 0 0
rwrist -25.3875 0 0
rhand -4.73036 -14.1559 0
rfingers 7.12502 0 0
rthumb 30.3658 -51.7746 0
515
root -5.47907 14.9983 -42.8936 366.113 -13.7357 347.368
lfemur -42.7873 28.002 -17.0808
ltibia 69.9272 0 0
lfoot -14.1811 19.4241 0
ltoes -6.31737 0 0
rfemur -20.9673 -22.7791 7.8361
rtibia 54.0487 0 0
rfoot 2.47257 -10.4476 0
rtoes 2.69467 0 0
lowerback 16.8515 0.99102 -6.35541
upperback -1.94281 0.408355 3.63152
thorax -11.7776 0.771397 7.59144
lowerneck 3.21698 -12.0248 -16.9869
upperneck 5.79366 -17.5198 16.3117
head 4.15619 -8.85127 6.86891
lclavicle -1.27162e-14 -1.3841e-14 0
lhumerus 11.7433 -66.9274 77.0475
lradius 95.3663 0 0
lwrist 24.2654 0 0
lhand -3.08059 35.9816 0
lfingers 7.12502 0 0
lthumb 12.0851 72.8818 0
rclavicle 4.88616e-15 -9.83267e-15 0
rhumerus 37.6448 45.3315 -38.6163
rradius 97.8793 0 0
rwrist -25.4356 0 0
rhand -6.19598 -13.9867 0
rfingers 7.12502 0 0
rthumb 30.3054 -51.8186 0
516
root -5.52744 14.9925 -42.9386 365.969 -17.002 347.851
lfemur -39.577 26.3885 -15.6913
ltibia 69.4094 0 0
lfoot -13.7763 19.067 0
ltoes -8.26043 0 0
rfemur -21.6003 -22.7565 7.87709
rtibia 54.1331 0 0
rfoot 1.75375 -8.71959 0
rtoes 1.53708 0 0
lowerback 17.0552 1.1251 -6.07832
upperback -2.96802 0.566213 3.08526
thorax -13.0954 0.891584 6.79427
lowerneck 7.75129 -10.8352 -17.2266
upperneck 4.76131 -16.4932 16.7762
head 2.98587 -8.56608 7.50285
lclavicle -1.21936e-14 -1.44433e-14 0
lhumerus 8.03048 -64.697 78.0387
lradius 96.4785 0 0
lwrist 24.3261 0 0
lhand -3.07701 35.8934 0
lfingers 7.12502 0 0
lthumb 11.089 73.5918 0
rclavicle 1.67708e-15 -9.08536e-15 0
rhumerus 35.2281 46.2028 -40.081
rradius 95.1102 0 0
rwrist -25.4851 0 0
rhand -7.7369 -13.8088 0
rfingers 7.12502 0 0
rthumb 30.2679 -51.8459 0
517
root -5.56438 14.9838 -42.9696 365.739 -20.4158 348.512
lfemur -36.32 24.7515 -14.2816
ltibia 68.9091 0 0
lfoot -13.4744 18.8007 0
ltoes -10.149 0 0
rfemur -22.4546 -22.726 7.93241
rtibia 54.3759 0 0
rfoot 1.0275 -6.9737 0
rtoes 0.395599 0 0
lowerback 17.1628 1.81538 -6.3374
upperback -2.07701 1.37001 2.54761
thorax -12.2522 1.19568 6.0889
lowerneck 3.57302 -11.4823 -14.553
upperneck 5.85213 -16.7271 15.556
head 3.70247 -8.44405 6.39662
lclavicle -1.17175e-14 -1.4992e-14 0
lhumerus 3.94546 -62.2431 79.1293
lradius 97.4471 0 0
lwrist 24.3756 0 0
lhand -3.07476 35.8378 0
lfingers 7.12502 0 0
lthumb 10.1332 74.2731 0
rclavicle -1.72538e-15 -8.29302e-15 0
rhumerus 33.0665 46.982 -41.3911
rradius 92.1743 0 0
rwrist -25.5351 0 0
rhand -9.33804 -13.624 0
rfingers 7.12502 0 0
rthumb 30.255 -51.8553 0
518
root -5.59782 14.9789 -42.9855 365.292 -24.1187 349.333
lfemur -33.0474 23.1066 -12.8651
ltibia 68.435 0 0
lfoot -13.2858 18.6342 0
ltoes -11.9612 0 0
rfemur -23.5117 -22.6882 8.00085
rtibia 54.7611 0 0
rfoot 0.301251 -5.2278 0
rtoes -0.713649 0 0
lowerback 17.3587 1.0274 -7.31868
upperback -1.66392 0.152858 3.03444
thorax -11.7129 0.675143 7.54645
lowerneck 1.03154 -10.1014 -15.85
upperneck 7.40685 -14.5961 14.7127
head 4.29006 -7.3161 6.35424
lclavicle -1.12951e-14 -1.54789e-14 0
lhumerus -0.458577 -59.5976 80.305
lradius 98.2459 0 0
lwrist 24.4124 0 0
lhand -3.07398 35.8185 0
lfingers 7.12502 0 0
lthumb 9.2292 74.9174 0
rclavicle -5.26596e-15 -7.46851e-15 0
rhumerus 31.2026 47.654 -42.5208
rradius 89.1192 0 0
rwrist -25.5846 0 0
rhand -10.9844 -13.4339 0
rfingers 7.12502 0 0
rthumb 30.1263 -51.8551 0
519
root -5.61849 14.9659 -42.9805 364.748 -27.6947 350.258
lfemur -29.7903 21.4696 -11.4554
ltibia 67.9958 0 0
lfoot -13.2206 18.5767 0
ltoes -13.6752 0 0
rfemur -24.7532 -22.6438 8.08124
rtibia 55.2729 0 0
rfoot -0.417574 -3.49975 0
rtoes -1.77455 0 0
lowerback 17.5492 1.02771 -7.62181
upperback -1.61549 0.0424008 2.75606
thorax -11.7485 0.630808 7.43895
lowerneck 0.568364 -9.45193 -15.5858
upperneck 8.0301 -13.6658 14.2464
head 4.35488 -6.84418 6.2268
lclavicle -1.09334e-14 -1.58958e-14 0
lhumerus -5.12845 -56.7924 81.5517
lradius 98.8488 0 0
lwrist 24.4354 0 0
lhand -3.11791 35.8325 0
lfingers 7.12502 0 0
lthumb 8.38845 75.5167 0
rclavicle -8.88941e-15 -6.62471e-15 0
rhumerus 29.6789 48.2033 -43.4444
rradius 85.9926 0 0
rwrist -25.6327 0 0
rhand -12.6608 -13.2404 0
rfingers 7.12502 0 0
rthumb 29.7532 -51.8546 0
520
root -5.63871 14.9465 -42.9642 364.179 -31.2884 351.047
lfemur -26.58 19.8561 -10.0659
ltibia 67.6002 0 0
lfoot -13.2683 18.6408 0
ltoes -15.2693 0 0
rfemur -26.1606 -22.5935 8.17237
rtibia 55.8956 0 0
rfoot -1.12155 -1.80738 0
rtoes -2.77099 0 0
lowerback 17.6574 1.0396 -7.70161
upperback -1.4782 0.00630625 2.51075
thorax -11.6462 0.597686 7.21459
lowerneck 0.111168 -8.95067 -15.6426
upperneck 8.66333 -12.964 14.0738
head 4.50486 -6.48811 6.21997
lclavicle -1.06396e-14 -1.62343e-14 0
lhumerus -10.011 -53.8594 82.8552
lradius 99.2297 0 0
lwrist 24.4434 0 0
lhand -3.24541 35.873 0
lfingers 7.12502 0 0
lthumb 7.62247 76.0627 0
rclavicle -1.25405e-14 -5.77447e-15 0
rhumerus 28.5379 48.6146 -44.1359
rradius 82.8421 0 0
rwrist -25.6786 0 0
rhand -14.3523 -13.0451 0
rfingers 7.12502 0 0
rthumb 29.1553 -51.8537 0
521
root -5.66061 14.9285 -42.9283 363.49 -34.9008 351.886
lfemur -23.4475 18.2817 -8.71014
ltibia 67.2569 0 0
lfoot -13.405 18.8249 0
ltoes -16.7216 0 0
rfemur -27.7155 -22.538 8.27305
rtibia 56.6132 0 0
rfoot -1.80326 -0.168561 0
rtoes -3.68686 0 0
lowerback 17.7347 1.28883 -7.55443
upperback -1.27775 0.322119 2.11419
thorax -11.5132 0.705614 6.58918
lowerneck -0.28514 -8.93848 -15.6153
upperneck 9.29227 -12.955 14.0029
head 4.75326 -6.47002 6.17033
lclavicle -1.04209e-14 -1.64864e-14 0
lhumerus -15.053 -50.8306 84.2013
lradius 99.3625 0 0
lwrist 24.5753 0 0
lhand -3.45005 35.938 0
lfingers 7.12502 0 0
lthumb 6.94278 76.5471 0
rclavicle -1.61639e-14 -4.93066e-15 0
rhumerus 27.8221 48.8727 -44.5698
rradius 79.7155 0 0
rwrist -25.7213 0 0
rhand -16.0438 -12.8498 0
rfingers 7.12502 0 0
rthumb 28.3521 -51.8525 0
522
root -5.68634 14.9003 -42.8788 362.841 -38.4573 352.683
lfemur -20.4241 16.7621 -7.40153
ltibia 66.9748 0 0
lfoot -13.6214 19.1161 0
ltoes -18.0103 0 0
rfemur -29.3995 -22.4778 8.38208
rtibia 57.41 0 0
rfoot -2.45528 1.39888 0
rtoes -4.50604 0 0
lowerback 17.7402 1.32285 -7.62341
upperback -1.17648 0.332664 1.934
thorax -11.4016 0.698138 6.42076
lowerneck -0.477116 -8.87552 -15.9511
upperneck 10.0109 -12.9008 13.921
head 5.01209 -6.45203 6.1889
lclavicle -1.02845e-14 -1.66436e-14 0
lhumerus -20.2014 -47.738 85.5758
lradius 99.4026 0 0
lwrist 24.9589 0 0
lhand -3.7254 36.0255 0
lfingers 7.12502 0 0
lthumb 6.36086 76.9619 0
rclavicle -1.97045e-14 -4.10615e-15 0
rhumerus 27.574 48.9621 -44.7201
rradius 76.6604 0 0
rwrist -25.7599 0 0
rhand -17.7202 -12.6563 0
rfingers 7.12502 0 0
rthumb 27.3631 -51.851 0
